<?xml version="1.0" standalone="no"?>
<!DOCTYPE svg PUBLIC "-//W3C//DTD SVG 20010904//EN"
 "http://www.w3.org/TR/2001/REC-SVG-20010904/DTD/svg10.dtd">
<svg version="1.0" xmlns="http://www.w3.org/2000/svg"
 width="225.000000pt" height="225.000000pt" viewBox="0 0 225.000000 225.000000"
 preserveAspectRatio="xMidYMid meet">
<metadata>
Created by potrace 1.14, written by Peter Selinger 2001-2017
</metadata>
<g transform="translate(0.000000,225.000000) scale(0.100000,-0.100000)"
fill="#000000" stroke="none">
<path d="M53 2156 c-61 -28 -42 -44 131 -110 222 -86 322 -152 477 -314 67
-70 113 -130 158 -206 49 -84 84 -129 154 -197 58 -56 88 -92 82 -98 -6 -6
-57 -17 -115 -27 -138 -21 -200 -45 -244 -94 -52 -57 -56 -98 -17 -172 l31
-60 -27 -32 c-88 -105 -81 -238 18 -303 42 -28 45 -28 183 -27 121 1 155 5
241 28 55 16 111 30 125 34 19 4 3 -18 -72 -97 -104 -109 -123 -146 -115 -217
15 -137 145 -217 275 -169 38 15 84 55 238 209 362 364 626 660 644 725 60
216 -193 352 -348 188 l-34 -35 -103 106 c-172 178 -327 283 -535 363 -164 62
-179 71 -280 165 -184 170 -356 276 -530 324 -100 28 -291 37 -337 16z m1510
-958 c68 -47 157 -122 157 -133 0 -12 -56 -80 -160 -193 l-68 -74 -56 18 c-54
17 -74 34 -39 34 31 0 124 80 144 124 25 55 25 148 -1 204 -10 23 -17 42 -14
42 3 0 20 -10 37 -22z"/>
<path d="M520 1632 c-19 -9 -48 -37 -65 -60 -26 -37 -30 -53 -30 -106 0 -53 4
-68 29 -100 42 -56 81 -76 149 -76 66 0 103 16 141 60 74 89 45 234 -58 281
-52 23 -121 24 -166 1z"/>
</g>
</svg>
